<svg xmlns="http://www.w3.org/2000/svg" width="26.734" height="24" viewBox="0 0 26.734 24">
  <path id="romantic-2962_210e0e0a-2ef4-41c8-a7fa-abddc092ac05" d="M29.605,12.9a5.539,5.539,0,0,0-2.514-.4,7.223,7.223,0,0,0-6.7,4.465A7.309,7.309,0,0,0,13.7,12.5,6.7,6.7,0,0,0,7,18.973v.112a6.7,6.7,0,0,0,.335,2.065c.781,2.958,3.014,5.916,5.637,8.651.641.657.732.794,1.563,1.563,2.009,1.9,4.074,3.683,5.86,5.135,4.688-3.963,11.5-10.158,13.06-15.348a6.586,6.586,0,0,0,.223-.949v-.112a6.753,6.753,0,0,0,.056-.949,6.877,6.877,0,0,0-2.145-4.982C30.23,12.887,29.605,12.9,29.605,12.9Z" transform="translate(-7 -12.497)" fill="#dc2c2c"/>
</svg>
