<?xml version="1.0" encoding="utf-8"?>
<!-- Generator: Adobe Illustrator 22.1.0, SVG Export Plug-In . SVG Version: 6.00 Build 0)  -->
<svg version="1.1" id="Calque_1" xmlns="http://www.w3.org/2000/svg" xmlns:xlink="http://www.w3.org/1999/xlink" x="0px" y="0px"
	 viewBox="0 0 56 87.5" style="enable-background:new 0 0 56 87.5;" xml:space="preserve">
<g>
	<path d="M27.8,80.5c-0.9,0-1.6-0.6-1.9-1.4c-4.2-12.6-9.7-19.7-14.5-26c-5.2-6.8-9.6-12.6-9.6-22.6c0-14.3,11.7-26,26-26
		s26,11.7,26,26c0,10-4.5,15.9-9.6,22.6c-4.8,6.3-10.2,13.4-14.5,26C29.4,79.9,28.6,80.5,27.8,80.5z M27.8,8.5c-12.1,0-22,9.9-22,22
		c0,8.7,3.7,13.5,8.8,20.2c4.1,5.3,9.1,11.8,13.2,22c4.1-10.2,9.1-16.7,13.2-22c5.1-6.7,8.8-11.5,8.8-20.2
		C49.8,18.4,39.9,8.5,27.8,8.5z"/>
	<circle cx="27.5" cy="30.8" r="8.3"/>
</g>
</svg>
