<?xml version="1.0" encoding="utf-8"?>
<!-- Generator: Adobe Illustrator 22.1.0, SVG Export Plug-In . SVG Version: 6.00 Build 0)  -->
<svg version="1.1" id="Calque_1" xmlns="http://www.w3.org/2000/svg" xmlns:xlink="http://www.w3.org/1999/xlink" x="0px" y="0px"
	 viewBox="0 0 87.3 82.8" style="enable-background:new 0 0 87.3 82.8;" xml:space="preserve">
<path d="M43.7,15C29-5,3.5,6.7,3.5,26.6c0,23.8,28.7,44.1,40.1,53.2c11.5-9.1,40.1-29.4,40.1-53.2C83.8,6,57.1-6.3,43.7,15z
	 M54.4,67.8c-3.5,2.9-7.1,5.7-10.7,8.5c-3.6-2.8-7.2-5.6-10.7-8.5c-5-4.2-9.9-8.8-14.2-13.7C13.2,47.6,8,39.7,6.6,31.1
	c-0.2-1.5-0.4-3-0.4-4.5c0-7.8,4.5-14.7,11.7-17.8c3.8-1.6,7.9-2,11.9-0.9c4.9,1.3,8.8,4.6,11.7,8.6l2.3,3.2l2.1-3.3
	C50.2,9.7,57,5.3,65.2,6.9c9.3,1.8,15.9,10.3,15.9,19.7c0,10.4-6,19.9-12.5,27.5C64.3,59.1,59.4,63.6,54.4,67.8z"/>
</svg>
